<?xml version="1.0" encoding="UTF-8" standalone="no"?>
<!-- Created with Inkscape (http://www.inkscape.org/) -->

<svg
   width="5.075994mm"
   height="5.6752472mm"
   viewBox="0 0 5.075994 5.6752472"
   version="1.1"
   id="svg1"
   xml:space="preserve"
   xmlns="http://www.w3.org/2000/svg"
   xmlns:svg="http://www.w3.org/2000/svg"><defs
     id="defs1" /><g
     id="layer1"
     transform="translate(-43.664701,-6.9686498)"><g
       id="g6"
       transform="matrix(1.0442935,0,0,1.0299479,-18.473064,-13.239351)"
       style="stroke-width:0.510239;stroke-dasharray:none"><path
         style="fill:none;stroke:#454545;stroke-width:0.510239;stroke-linecap:round;stroke-linejoin:round;stroke-dasharray:none;stroke-opacity:1"
         d="M 59.757328,24.781028 64.013276,19.87553"
         id="path1-5" /><path
         style="fill:none;stroke:#454545;stroke-width:0.510239;stroke-linecap:round;stroke-linejoin:round;stroke-dasharray:none;stroke-opacity:1;paint-order:stroke fill markers"
         id="path6"
         d="m 60.874755,20.200241 a 0.579907,0.579907 0 0 1 -0.203859,0.788851 0.579907,0.579907 0 0 1 -0.791433,-0.193592 0.579907,0.579907 0 0 1 0.183291,-0.793882 0.579907,0.579907 0 0 1 0.796197,0.172961" /><path
         style="fill:none;stroke:#454545;stroke-width:0.510239;stroke-linecap:round;stroke-linejoin:round;stroke-dasharray:none;stroke-opacity:1;paint-order:stroke fill markers"
         id="path6-4"
         d="m 64.030464,24.005561 a 0.579907,0.579907 0 0 1 -0.203859,0.788852 0.579907,0.579907 0 0 1 -0.791434,-0.193592 0.579907,0.579907 0 0 1 0.183292,-0.793882 0.579907,0.579907 0 0 1 0.796197,0.17296" /></g></g></svg>
